<?xml version="1.0" encoding="utf-8"?>
<!-- Generator: Adobe Illustrator 19.0.0, SVG Export Plug-In . SVG Version: 6.00 Build 0)  -->
<svg version="1.1" id="bcfca5f0-de0d-458d-b0e1-91947ae777e0"
	 xmlns="http://www.w3.org/2000/svg" xmlns:xlink="http://www.w3.org/1999/xlink" x="0px" y="0px" viewBox="-113 52.8 1051.2 697.2"
	 style="enable-background:new -113 52.8 1051.2 697.2;" xml:space="preserve">
<style type="text/css">
	.st0{opacity:0.1;fill:#FF4A74;enable-background:new    ;}
	.st1{opacity:0.6;}
	.st2{fill:none;stroke:#535461;stroke-width:2;stroke-miterlimit:10;}
	.st3{fill:#FF4A74;}
	.st4{opacity:0.25;enable-background:new    ;}
	.st5{fill:#FFFFFF;stroke:#33313F;stroke-width:3;stroke-miterlimit:10;}
	.st6{fill:#FFFFFF;stroke:#33313F;stroke-width:2;stroke-miterlimit:10;}
	.st7{fill:none;stroke:#33313F;stroke-width:3;stroke-miterlimit:10;}
	.st8{fill:#33313F;}
	.st9{fill:#65617D;}
	.st10{opacity:0.1;enable-background:new    ;}
	.st11{fill:#FFD037;}
	.st12{fill:url(#SVGID_1_);}
	.st13{opacity:5.000000e-002;enable-background:new    ;}
	.st14{opacity:5.000000e-002;}
	.st15{fill:#FFCDD3;}
	.st16{fill:#2D293D;}
	.st17{fill:#464353;}
	.st18{fill:#DCE6F2;}
	.st19{fill:#3F3D56;}
	.st20{fill:#444053;}
	.st21{fill:#9D9CB5;}
</style>
<title>user flow</title>
<path class="st0" d="M489,185.7c-64.7-2.3-126.4-23.1-185.2-46c-58.9-22.9-117.2-48.2-180.3-60.3C82.8,71.6,36.4,70.5,3.6,92.3
	c-31.5,21-41.7,57.1-47.2,90.7c-4.1,25.3-6.5,51.8,4.8,75.5c7.8,16.4,21.7,30.2,31.4,46C26,359.2,2.4,426.7-33.9,480.1
	c-17,25.1-36.7,49-49.9,75.7s-19.2,57.3-7.7,84.5c11.4,27,38.5,47.2,67.9,61.5c59.7,29,130,37.2,198.6,41.9
	c151.8,10.4,304.5,5.9,456.7,1.4c56.3-1.7,112.9-3.4,168.3-12.1c30.8-4.8,62.6-12.5,84.9-31c28.4-23.5,35.4-63.4,16.4-92.9
	c-31.9-49.5-120-61.8-142.3-114.9c-12.3-29.2,0.3-61.8,18.2-88.9c38.2-58.2,102.3-109.2,105.7-175.7c2.3-45.7-28.5-91.4-76.1-113
	c-49.9-22.6-119.2-19.8-156,17.7C612.8,172.9,546.1,187.7,489,185.7z"/>
<g id="abffebd3-2ac6-4c6b-a0d4-e62621854ed7" class="st1">
	<path class="st2" d="M145.3,298.5c0,0-27.5-48.7-68.9-62.7c-17.4-5.8-32.4-17-42.9-32.1c-4.9-7.2-9.1-14.8-12.7-22.8"/>
	<path class="st3" d="M-5.1,171.9c4.7,4.6,26.7,9.3,26.7,9.3s-5.4-21.8-10.1-26.4c-4.6-4.7-12.2-4.7-16.8,0
		c-4.7,4.6-4.7,12.2,0,16.8C-5.3,171.7-5.2,171.8-5.1,171.9L-5.1,171.9z"/>
	<path class="st3" d="M7.3,211.4c6.4,1.3,27.5-6.7,27.5-6.7S18.4,189.3,11.9,188c-6.4-1.3-12.7,2.9-14,9.4
		C-3.4,203.8,0.8,210.1,7.3,211.4L7.3,211.4z"/>
	<path class="st3" d="M52.5,254.1c6.2-2.1,20.3-19.6,20.3-19.6s-21.9-5-28.1-2.9c-6.2,2.2-9.5,8.9-7.3,15.1
		C39.5,252.9,46.3,256.2,52.5,254.1L52.5,254.1L52.5,254.1z"/>
	<path class="st3" d="M94,278.7c6.5-1.1,23.4-15.9,23.4-15.9s-20.7-8.6-27.2-7.6c-6.5,1.1-10.9,7.2-9.8,13.7S87.6,279.8,94,278.7
		L94,278.7L94,278.7z"/>
	<path class="st3" d="M53.1,187.6c0,6.6-11.9,25.6-11.9,25.6s-11.9-19-11.9-25.6c0-6.6,5.3-11.9,11.9-11.9
		C47.7,175.7,53.1,181.1,53.1,187.6L53.1,187.6z"/>
	<path class="st3" d="M101.2,217c-2,6.3-19,20.9-19,20.9s-5.7-21.8-3.7-28c2-6.3,8.6-9.8,14.9-7.8C99.7,204.1,103.2,210.8,101.2,217
		L101.2,217L101.2,217z"/>
	<path class="st3" d="M144.2,252c-0.9,6.5-15.2,23.8-15.2,23.8s-9.3-20.5-8.4-27c0.9-6.5,6.9-11.1,13.4-10.2
		C140.5,239.5,145,245.5,144.2,252z"/>
	<path class="st4" d="M-5.1,171.9c4.7,4.6,26.7,9.3,26.7,9.3s-5.4-21.8-10.1-26.4c-4.6-4.7-12.2-4.7-16.8,0
		c-4.7,4.6-4.7,12.2,0,16.8C-5.3,171.7-5.2,171.8-5.1,171.9L-5.1,171.9z"/>
	<path class="st4" d="M7.3,211.4c6.4,1.3,27.5-6.7,27.5-6.7S18.4,189.3,11.9,188c-6.4-1.3-12.7,2.9-14,9.4
		C-3.4,203.8,0.8,210.1,7.3,211.4L7.3,211.4z"/>
	<path class="st4" d="M52.5,254.1c6.2-2.1,20.3-19.6,20.3-19.6s-21.9-5-28.1-2.9c-6.2,2.2-9.5,8.9-7.3,15.1
		C39.5,252.9,46.3,256.2,52.5,254.1L52.5,254.1L52.5,254.1z"/>
	<path class="st4" d="M94,278.7c6.5-1.1,23.4-15.9,23.4-15.9s-20.7-8.6-27.2-7.6c-6.5,1.1-10.9,7.2-9.8,13.7S87.6,279.8,94,278.7
		L94,278.7L94,278.7z"/>
	<path class="st4" d="M53.1,187.6c0,6.6-11.9,25.6-11.9,25.6s-11.9-19-11.9-25.6c0-6.6,5.3-11.9,11.9-11.9
		C47.7,175.7,53.1,181.1,53.1,187.6L53.1,187.6z"/>
	<path class="st4" d="M101.2,217c-2,6.3-19,20.9-19,20.9s-5.7-21.8-3.7-28c2-6.3,8.6-9.8,14.9-7.8C99.7,204.1,103.2,210.8,101.2,217
		L101.2,217L101.2,217z"/>
	<path class="st4" d="M144.2,252c-0.9,6.5-15.2,23.8-15.2,23.8s-9.3-20.5-8.4-27c0.9-6.5,6.9-11.1,13.4-10.2
		C140.5,239.5,145,245.5,144.2,252z"/>
	<path class="st2" d="M143.8,297.5c0,0-5.4-55.7-37.6-85.3c-13.6-12.3-22.8-28.7-26.2-46.7c-1.6-8.6-2.4-17.2-2.4-26"/>
	<path class="st3" d="M57.5,120.8c2.5,6.1,20.6,19.3,20.6,19.3s3.9-22.1,1.5-28.2c-2.5-6.1-9.4-9-15.5-6.6
		C58,107.8,55,114.7,57.5,120.8L57.5,120.8L57.5,120.8z"/>
	<path class="st3" d="M52.8,161.9c5.4,3.8,27.8,5,27.8,5s-8.7-20.7-14.1-24.5c-5.4-3.8-12.8-2.5-16.6,2.9S47.5,158.1,52.8,161.9
		L52.8,161.9z"/>
	<path class="st3" d="M76.9,219.3c6.5,0.5,26.5-9.7,26.5-9.7s-18-13.4-24.5-14c-6.6-0.6-12.3,4.3-12.9,10.9
		C65.5,213,70.3,218.8,76.9,219.3L76.9,219.3z"/>
	<path class="st3" d="M104.9,258.6c6.4,1.6,27.8-5.1,27.8-5.1s-15.5-16.3-21.8-18c-6.3-2-13,1.5-14.9,7.8c-2,6.3,1.5,13,7.8,14.9
		C104.1,258.4,104.5,258.5,104.9,258.6L104.9,258.6z"/>
	<path class="st3" d="M104.3,158.8c-2.7,6-21.3,18.6-21.3,18.6s-3.2-22.2-0.5-28.3c2.7-6,9.7-8.7,15.7-6.1
		C104.3,145.7,107,152.8,104.3,158.8L104.3,158.8z"/>
	<path class="st3" d="M136.5,205.2c-4.3,4.9-25.9,11.4-25.9,11.4s3.6-22.2,8-27.1c4.3-4.9,11.9-5.4,16.8-1.1
		C140.3,192.7,140.8,200.2,136.5,205.2L136.5,205.2L136.5,205.2z"/>
	<path class="st3" d="M161.5,254.6c-3.4,5.6-23.5,15.6-23.5,15.6s-0.2-22.5,3.3-28.1c3.4-5.6,10.8-7.4,16.4-3.9
		S164.9,249,161.5,254.6z"/>
</g>
<path class="st5" d="M34.4,218.6c0,0,147,6,167,0c0,0-11,246-7,254c0,0-163,9-175,0S34.4,218.6,34.4,218.6z"/>
<path class="st5" d="M56.4,264.6c0,0,68,108,91,118"/>
<path class="st5" d="M147.4,264.6c0,0-65,85-75,114"/>
<path class="st5" d="M56.4,423.6"/>
<path class="st5" d="M141.4,423.6h-79c-6,0-6,28-6,28h85V423.6z"/>
<path class="st5" d="M310.4,218.6c0,0,141-7,167,0c0,0-11,246-7,254c0,0-180.2,14.1-175,0C306.4,442.6,310.4,218.6,310.4,218.6z"/>
<path class="st5" d="M365.3,237.4c0,0,31.4,49.9,42,54.5"/>
<path class="st5" d="M407.3,237.4c0,0-30,39.2-34.6,52.6"/>
<path class="st5" d="M443.1,323.6h-106c-8,0-8,28-8,28h114V323.6z"/>
<path class="st5" d="M428.6,412.6h-79c-6,0-6,28-6,28h85V412.6z"/>
<path class="st5" d="M443.1,364.6c8,0-96.6,9-106,0c-4.9-4.7-8,28-8,28h114V364.6z"/>
<polyline class="st5" points="375.9,426.1 381.9,432.1 392.9,417.1 "/>
<path class="st5" d="M579.4,220.6c0,0,140,17,167,0c0,0-11,246-7,254c0,0-185.8,10.4-175,0C591.4,448.6,579.4,220.6,579.4,220.6z"/>
<path class="st5" d="M598.8,264.1c0,0,20.2,32,27,35"/>
<path class="st5" d="M625.8,264.1c0,0-19.3,25.3-22.2,33.8"/>
<path class="st5" d="M714.1,330.1h-106c-8,0-8,14.8-8,14.8h114V330.1z"/>
<path class="st5" d="M656.3,374.1h55.2c8,0,8,14.8,8,14.8h0.2"/>
<path class="st5" d="M714.1,351.8c8,0-96.6,4.8-106,0c-4.9-2.5-8,14.8-8,14.8h114V351.8z"/>
<path class="st5" d="M580.2,239.4c0,0,155.2,11.5,165.2,3.9"/>
<path class="st6" d="M725.8,232.3c2.1-0.5,4.3,0.2,6.5,0.5s4.6,0.3,6.2-1.2"/>
<path class="st6" d="M724.8,236.2c4.5,0.8,9,1,13.6,0.8"/>
<path class="st6" d="M724.8,241.8c3.8-0.7,7.7-1.1,11.6-1.3"/>
<path class="st6" d="M588.9,234.4c1.9,0.9,3.9,1.3,6,1.2c1.3,0.2,2.6-0.1,3.7-0.8c1.3-1.1,1.4-3,1.4-4.7c0-0.5,0-1-0.2-1.5
	c-0.3-0.5-0.6-0.8-1.1-1.1c-2.5-1.7-7.1-2.4-10-1.3C584.9,227.8,585.5,232.5,588.9,234.4z"/>
<path class="st5" d="M633.2,257.9c-0.6,7.4,1.2,14.8,2.4,22.1c1.5,9.3,2.1,18.6,1.8,28c-15.8,1-31.6,1.2-47.4,0.7
	c1.5,0,1.1-33.4,1.2-36.5c0.2-3.9-0.7-10.7,3.9-12.2c4.8-1.6,11.6-0.6,16.6-0.8C618.8,258.7,626,258.3,633.2,257.9z"/>
<path class="st7" d="M224.4,333.6c0,0,39-2,46,0"/>
<path class="st7" d="M270.4,312.6c0,0,17,17,17,21s-22,18-22,18"/>
<path class="st7" d="M494.4,333.6c0,0,39-2,46,0"/>
<path class="st7" d="M540.4,312.6c0,0,17,17,17,21s-22,18-22,18"/>
<circle class="st0" cx="264.3" cy="74.4" r="21.6"/>
<circle class="st0" cx="593.4" cy="104.3" r="21.6"/>
<circle class="st0" cx="824.6" cy="424.7" r="21.6"/>
<circle class="st0" cx="902" cy="328.3" r="36.3"/>
<circle class="st0" cx="854" cy="504.2" r="36.3"/>
<circle class="st0" cx="-76.8" cy="390.8" r="36.3"/>
<polygon class="st8" points="653,376.9 656.4,373.8 653.4,373.7 651.8,376.1 "/>
<polygon class="st9" points="628.8,398.8 632.4,394.3 633.2,393.4 644.1,382 647.8,378.1 649.5,377.9 652,375.4 653.5,376.7 
	651.1,379.6 651.1,381.1 647.3,385.2 636.6,396.8 635.9,397.5 631.6,401.5 "/>
<polygon class="st8" points="633.2,393.4 644.1,382 647.3,385.2 636.6,396.8 "/>
<path class="st10" d="M746.9,507.3c-0.7,0.5-1.5,0.8-2.3,0.8c-1.3,0-2.5-0.1-3.8-0.5l-8.9-2.3c-0.3-0.1-0.6-0.2-0.8-0.3
	c0.2-1.6,0.5-3.4,1.3-4c1.3-0.9,5.1,0.3,6.5,0.5c2.5,0.3,5,0.8,7.4,1.2C746.7,504.3,746.9,505.8,746.9,507.3z"/>
<path class="st10" d="M803.9,628.3c0.5,0.8,0.9,1.6,1.2,2.4c10.4,12.2,15.9,23.6,5.9,23.9c-9.3,0.3-20.5,16.9-23.1,21.1
	c0.1,0.3,0.2,0.6,0.3,1c0,0,13.1-21.8,23.7-22S815.6,641.4,803.9,628.3z"/>
<path class="st10" d="M772.6,628.3c-0.5,0.8-0.9,1.6-1.2,2.4c-10.4,12.2-15.9,23.6-5.9,23.9c9.3,0.3,20.5,16.9,23.1,21.1
	c-0.1,0.3-0.2,0.6-0.3,1c0,0-13.1-21.8-23.7-22S760.9,641.4,772.6,628.3z"/>
<path class="st11" d="M761.6,638.2c0,2.7,0.3,4.9,0.7,4.9s0.7-2.2,0.7-4.9s-0.4-1.5-0.8-1.5S761.6,635.5,761.6,638.2z"/>
<path class="st11" d="M757.8,641.5c2.4,1.3,4.5,2.1,4.7,1.8s-1.6-1.7-4-3s-1.5-0.3-1.6,0S755.4,640.1,757.8,641.5z"/>
<g>
	
		<linearGradient id="SVGID_1_" gradientUnits="userSpaceOnUse" x1="760.3388" y1="47.7237" x2="760.3388" y2="375.7454" gradientTransform="matrix(1 0 0 -1 -51.77 758.5)">
		<stop  offset="0" style="stop-color:#808080;stop-opacity:0.25"/>
		<stop  offset="0.54" style="stop-color:#808080;stop-opacity:0.12"/>
		<stop  offset="1" style="stop-color:#808080;stop-opacity:0.1"/>
	</linearGradient>
	<path class="st12" d="M785.9,704c-0.9-3.7-1.4-7-1.4-7c0.1-2.5-0.5-4.9-1.6-7.1v-1l0,0v-7.5c0.5-1.4,1.2-2.7,1.9-3.9
		c1.4-2.4,0-11,0-11s-5-12.2-3.8-20s-10.3-34.4-10.3-34.4c0.1-2.6,0.4-5.1,1.1-7.6c0.1-0.5,0.2-1.1,0.1-1.6c0-0.1,0-0.1,0-0.2v0.1
		c-0.2-5.1-4.2-14.7-4.2-14.7l0.5-18.3c0,0,2.6-10.8-1.6-25.2c-1.5-5-2.4-9.1-3-12.2c-0.1-0.3-0.1-0.7-0.2-1
		c8.7-1.3,15.3-2.4,15.3-2.4s-5-21-8.4-24.7c-3.4-3.7-6.1-15.2-6.1-15.2s-1.8-14.8,1.1-19.2s3.3-11.8,3.3-11.8l-18.3-22.1l-8-7.6
		c-0.1-0.2-0.2-0.5-0.2-0.7c-0.3-1.1-0.6-2.2-0.7-3.3c0.9-0.2,1.7-0.5,2.6-0.8c0.8-0.3,1.6-0.8,2.2-1.4c0.7-1,1.1-2.2,1.3-3.5
		c0.6-2.3,2-4.4,3-6.6c1.6-3.7,2.2-7.8,1.6-11.8c-0.1-1.2-0.5-2.4-1.2-3.5c-1.3-1.8-3.7-2.5-5.5-4c-1.8-1.4-2.8-3.6-4.9-4.7
		c-1.9-0.8-4.1-1-6.1-0.5c-4,0.7-7.9,2.1-11.4,4.1c-1.2,0.7-2.5,1.5-3.8,1.3c-1.1-0.3-2.1-1-2.7-2c0,0,0-0.1,0-0.1l-0.1-0.1
		c-0.8,1.9-1.3,3.9-1.2,6c0,0.3,0,0.6,0,1c0,0.1,0,0.2,0,0.3c0,0.1,0,0.2,0,0.3l0,0c0,0.1,0,0.3-0.1,0.4c-0.2,0.4-0.4,0.8-0.7,1.1
		c-0.3,0.3-0.5,0.6-0.7,0.9c0-0.1,0.1-0.2,0.1-0.3c-0.5,0.7-0.8,1.6-0.8,2.5c0,0.7,0.2,1.3,0.6,1.8c0.4,0.4,0.8,0.8,1.3,1.1
		c-0.2,0.9-0.2,1.8-0.2,2.7c0,5.4,2.9,10.5,7.6,13.2l0.3,0.7c1.2,2.8,1.7,5.7,1.5,8.7c0,0.2,0,0.4-0.1,0.6l-0.3,0.3l0,0
		c0,0-13.3,0.1-16.4-2.7c-3.1-2.8-7.9,6.9-7.9,6.9s-4.7,0.9-5.7,0c-0.9-0.9-6.5-0.1-6.5-0.1c-2.3-2-5.2-3.1-8.3-3
		c-1.9-1.4-3.9-2.6-6.1-3.4l0,0l-0.2-0.1l0,0c-1-0.3-2-0.5-3-0.4c0,0-6.5-5.4-8.4-8.3c-1.9-2.9-10.9-13.6-11-13.7v-0.5l-0.1-1.6
		c-0.3,0-0.5,0.1-0.8,0.1c0-0.2-0.1-0.3-0.2-0.5c-0.5-1.5-1.2-3-1.9-4.4c0,0,0-2,0.6-2.5c0.6-0.5-0.2-7.7-0.2-7.7
		s-5.9-13.7-11.1-3.5c0,0-9.9,6.6-1.6,14.4c0,0,3.3,1.6,3.8,2.9c0.3,0.8,1.4,3.2,2.2,4.7l0.3,0.7l-0.1,0.1l0.1,1.3v0.5
		c-1.6,0.9-2.6,1.8-2.4,2.4c0.5,1.1,0.8,2.3,0.9,3.5c0,0,11.5,14.4,13,20.6c0,0,30.9,18.4,41.1,19.7l-1.8,9.2
		c-0.3,2.5-0.4,5-0.4,7.5c0.1,2-1.2,10.9-1.2,10.9s-1.8,13.1-3.3,15c-1.5,1.9-1.2,9.7-1.2,9.7c-0.4,3.8-1,7.5-2,11.2
		c-1.5,5-0.4,11.2-0.4,11.2s-5.2,11.8,7.2,3.8c0,0,6.1-0.4,13.1-0.6c0,0.2,0,0.5,0,0.7c0,0.9,0,1.9,0,2.9
		c-0.1,6.8-0.1,16.1,0.2,23.2c0.5,12.5,4.4,37.1,4.4,37.1v12.4c-0.2,1.2-0.4,2.4-0.3,3.5c-0.1,4.4,1.1,8.7,3.3,12.4l0.9,8.3
		c0,0,2.2,5.5,2.3,8.7c0,0.3,0,0.5-0.1,0.8c-0.1,0.4-0.1,0.8-0.1,1.3c-0.1,3.8,2.2,12.7,2.2,12.7s0.1,9.1,1.5,9.6
		c1.2,0.4-1.6,5.2-2.4,6.5c0-0.1,0-0.2-0.1-0.3c-0.1,0.2-0.2,0.3-0.2,0.3c-0.3,0.7-0.4,1.5-0.4,2.3c-0.2,1.3,0.4,2.5,1.5,3.2
		c2.6,1.6,4,2.9,1.8,3.4c-0.8,0.1-1.6,0.3-2.4,0.5c0-0.1-0.1-0.2-0.1-0.3c-0.6,0.3-0.9,0.9-0.9,1.5c0,1.1,0.3,2.1,0.8,3.1
		c1,2.4,2.2,4.6,3.7,6.7l1.1-0.1c-0.2,0.4-0.4,0.8-0.6,1.1c-0.4,0.6-0.9,1-1.5,1.4c-0.6,0.3-1.2,0.6-1.9,0.6c-1.5,0-2.9,0.7-3.8,1.9
		c-1.4,1.7-2.2,4.1,0.5,6.2l9.7,3.3c0,0,16.7,2.2,15.8-1.6c-0.9-3.8-1.4-7-1.4-7c0.1-2.3-0.4-4.6-1.4-6.6c-0.2-0.3-0.4-0.7-0.6-1
		l0.6-0.1c0,0,1.2-8.3,2.8-9.8c0.4-0.4,0.5-0.6,0.4-0.9c0.2-0.4-0.3-0.7-0.8-0.9l-0.1,0.3c-0.5-0.1-1.1-0.2-1.6-0.2
		c0,0-0.5-4.4,1.2-5.9c0.3-0.4,0.4-0.8,0.3-1.3c0-0.6-0.1-1.2-0.2-1.8l-0.1,0.1c-1-3.5-2.3-6.9-3.9-10.2c0,0-0.1-3.9,0.9-5.5
		c1.1-1.6-0.1-21.4-0.1-21.4s0.4-9.6-0.8-14c-1.2-4.5,1.5-9.7,1.5-9.7v-0.3v-0.1c0,0-0.1-0.6-0.2-1.5v0.1c-0.3-2.5-0.8-7.1-1.2-9.3
		c-0.5-3,0.1-17.5,0.1-17.5l2.4-6.2l4.4,10.6l4.6,14.2c1.3,1.8,2.1,3.8,2.3,6c0,0.2,0,0.3,0,0.4c0,0.3,0,0.6,0,0.9
		c-0.1,1.8,0.4,3.6,1.4,5.1c0,0,1.2,6.7,3.1,8.4c1.9,1.7,1.9,5,1.9,5s2.3,9.7,3.4,11.4c0.9,1.4,1,5.4,0.9,6.5l0,0v0.4
		c0,0,0.3,3.5,0.3,6.4c0,0.3,0,0.7,0,1.1v-0.1c0,0.8-0.1,1.6-0.3,2.4v0.1c0-0.2,0-0.3,0-0.5c-0.5,2-0.7,4-0.7,6.1
		c-0.1,3.5,0.5,7.6,2.6,10.1c3.7,4.2,6,3.7,6,3.7s-1.8,5.3-3.9,6.3c-0.1,0-0.2,0.1-0.2,0.1c0-0.1,0-0.2-0.1-0.3
		c-0.5,0.5-0.7,1.3-0.6,2c0.1,2.8,1,5.5,2.7,7.8c0.5,0.5,1.1,0.9,1.8,1.1l-0.3,0.2c-0.2,0.1-0.5,0.3-0.8,0.4
		c-0.3,0.2-0.7,0.2-1.1,0.3c-1.5,0-2.9,0.7-3.8,1.9c-1.4,1.7-2.2,4.1,0.5,6.2l9.7,3.3C770.3,705.6,786.8,707.8,785.9,704z"/>
	<path class="st10" d="M733.5,693.1c0.5,0.5,0.9,1.2,1.3,1.8l0,0l-15.5,1.8c0.7-1.1,1.1-2.3,1.1-3.6
		C720.4,693.1,730.7,690.1,733.5,693.1z"/>
	<path class="st10" d="M780.5,689.8v2.9c-2.4,4-14,3.1-17.4,1.1c0.2-0.1,0.5-0.2,0.7-0.4c2.6-1.4,2.6-5,2.6-5s10.3-3,13.1,0
		C779.9,688.9,780.2,689.3,780.5,689.8z"/>
	<path class="st13" d="M730.9,669.3c0,0-15.5,2.9-11.1,4.9c3.8,1.5,7.7,2.7,11.6,3.5C731.4,677.7,736.4,678,730.9,669.3z"/>
	<g class="st14">
		<path d="M716.7,677.2c-0.8-0.5-1.3-1.3-1.4-2.2l-0.2,0.3c0,0-1.5,3.5,1.1,5.1c0.3,0.2,0.6,0.4,0.8,0.5c0.5-0.1,1-0.2,1.4-0.3
			C720.5,680.2,719.2,678.8,716.7,677.2z"/>
		<path d="M736.6,676.2c0.4-0.4,0.4-1.4,0.2-2.7c-0.6,1.2-0.9,2.5-0.9,3.8C736,676.9,736.3,676.5,736.6,676.2z"/>
		<path d="M734.2,610.9c-0.6,1.6-1,3.2-1.1,4.8c0.3-1.1,0.7-2.2,1.2-3.3C734.3,612.4,734.4,611.8,734.2,610.9z"/>
		<path d="M769.7,604c0.1-0.5,0.2-1,0.1-1.4c-0.2,1-0.3,1.9-0.4,2.7C769.5,604.8,769.6,604.4,769.7,604z"/>
		<path d="M733.9,657.6c0.3-0.9,0.4-1.9,0.4-2.9c-0.5,1.2-0.7,2.4-0.8,3.7C733.6,658.1,733.7,657.8,733.9,657.6z"/>
		<path d="M737.1,682.3c-0.8,2.6-1.4,5.3-1.8,8.1l-15.9,1.8c-1.4-2.1-2.6-4.3-3.6-6.7c-0.2-0.4-0.3-0.8-0.4-1.2
			c-0.9,0.4-1.3,1.4-0.1,4.4c0.9,2.4,2.1,4.6,3.6,6.7l15.9-1.8c0,0,1.2-8.3,2.8-9.8C738.3,682.9,737.8,682.5,737.1,682.3z"/>
		<path d="M716.1,658.8c0,0,0.1,9.1,1.4,9.6l0,0c0.7-1.5,1.1-2.9,0.5-3.2c-1.3-0.5-1.4-9.6-1.4-9.6s-2.6-10.8-2-13.7
			c0.7-2.9-2.1-9.8-2.1-9.8l-0.9-8.3c-2.8-4.7-3.8-10.2-2.9-15.6v-12.8c0,0-3.7-24.7-4.2-37.2c-0.3-8-0.2-18.9-0.1-25.7
			c0-1.2,0-2.3,0-3.3H704c0,0-0.1,2.5-0.1,6.3c-0.1,6.8-0.2,17.7,0.1,25.7c0.5,12.5,4.2,37.2,4.2,37.2v12.7c-1,5.4,0.1,11,3,15.8
			l0.9,8.3c0,0,2.8,7,2.1,9.8C713.5,648,716.1,658.8,716.1,658.8z"/>
		<path d="M762.9,688.7c-1.3-1.9-2.1-4-2.5-6.2c-1.6,1.5,0.2,7.1,2,9.4s15.5,3.8,18.1-0.5v-2.5C776.9,692.4,764.6,690.9,762.9,688.7
			z"/>
		<path d="M782.8,673.9c-0.7,1.3-1.3,2.6-1.8,3.9v1.8c0.3-0.7,0.7-1.6,1.3-2.6c0.4-1,0.6-2.2,0.6-3.3L782.8,673.9z"/>
		<path d="M763.7,675.9c0.5-1,0.9-2.1,1.3-3.1c0,0-2.2,0.5-5.8-3.7c-2.6-3.1-2.7-8.8-2.4-12.6c-0.7,2.2-1.7,11.6,1.8,15.8
			C761,675.1,762.7,675.8,763.7,675.9z"/>
		<path d="M756.8,646.8c0.2,2.6,0.3,5.2,0.3,7.8c0.1-0.5,0.2-0.9,0.3-1.2c0.7-2.2,0-9.7,0-9.7s0.1-5.3-0.9-7
			c-1-1.7-3.3-11.4-3.3-11.4s0-3.3-1.8-5c-1.8-1.7-3-8.4-3-8.4c-1.1-1.7-1.5-3.7-1.3-5.6c0.4-3.3-2.2-6.8-2.2-6.8l-4.5-14.2
			l-4.3-10.6l-2.4,6.2c0,0,0,0.8-0.1,2l1.9-5l4.2,10.6l4.5,14.2c0,0,2.6,3.5,2.2,6.8c-0.2,2,0.3,3.9,1.4,5.6c0,0,1.2,6.7,3,8.4
			s1.8,5,1.8,5s2.2,9.7,3.3,11.4S756.8,646.8,756.8,646.8z"/>
	</g>
	<path class="st15" d="M746.9,437c0,0-37.8,4.3-30.7,2c4.9-1.6,6.9-4.7,7.3-8.2c0.2-3-0.3-6-1.4-8.7c-0.9-2.4-2-4.7-3.4-6.8
		c0,0,28.9-15.9,23.1-1.4c-0.9,2.2-1.5,4.5-1.6,6.8c-0.2,2.3,0.1,4.7,0.7,6.9C741.9,431.2,744,434.5,746.9,437z"/>
	<g>
		<ellipse class="st0" cx="746.9" cy="707.2" rx="102.3" ry="10.4"/>
		<path class="st16" d="M722.2,710.2l-9.4-3.3c-2.6-2.1-1.8-4.5-0.4-6.2c0.9-1.1,2.3-1.8,3.7-1.9c0.6-0.1,1.3-0.3,1.8-0.6
			c0.6-0.3,1.1-0.8,1.5-1.4c0.7-1.1,1.1-2.3,1.1-3.6c0,0,10.3-3,13.1,0c0.5,0.5,0.9,1.2,1.3,1.8c0.9,2.1,1.4,4.4,1.3,6.6
			c0,0,0.5,3.3,1.4,7S722.2,710.2,722.2,710.2z"/>
		<path class="st16" d="M768.1,705.6l-9.4-3.3c-2.6-2.1-1.8-4.5-0.5-6.2c0.9-1.1,2.3-1.8,3.7-1.9c0.4,0,0.7-0.1,1.1-0.3
			c0.2-0.1,0.5-0.2,0.7-0.4c2.6-1.4,2.6-5,2.6-5s10.3-3,13.1,0c0.4,0.4,0.7,0.9,1,1.3c1.1,2.2,1.7,4.7,1.6,7.1c0,0,0.5,3.3,1.4,7
			C784.3,707.8,768.1,705.6,768.1,705.6z"/>
		<path class="st17" d="M782.3,677.4c-0.7,1.3-1.3,2.6-1.8,3.9v10.4c-2.6,4.4-16.3,2.9-18.1,0.5s-3.8-8.5-1.7-9.6
			c2.1-1,3.8-6.3,3.8-6.3s-2.2,0.5-5.8-3.7s-2.5-13.5-1.8-15.8c0.7-2.2,0-9.7,0-9.7s0.1-5.3-0.9-7s-3.3-11.4-3.3-11.4s0-3.3-1.8-5
			c-1.8-1.7-3-8.4-3-8.4c-1.1-1.7-1.5-3.7-1.3-5.6c0.4-3.3-2.2-6.8-2.2-6.8l-4.5-14.2l-4.2-10.6l-2.4,6.2c0,0-0.7,14.5-0.1,17.5
			c0.5,3,1.3,11,1.3,11s-2.6,5.3-1.4,9.7c1.2,4.5,0.8,14,0.8,14s1.2,19.8,0.1,21.4c-1,1.6-0.9,5.5-0.9,5.5s5.4,11.6,3.7,13.1
			s-1.2,5.9-1.2,5.9s3.7,0,2.1,1.6c-1.6,1.6-2.8,9.8-2.8,9.8l-15.9,2c-1.4-2.1-2.6-4.3-3.6-6.7c-2.1-4.9,0.4-4.4,2.5-4.9
			c2.1-0.5,0.8-1.8-1.7-3.4c-2.5-1.6-1.1-5.1-1.1-5.1s3.8-6.4,2.5-7c-1.3-0.5-1.5-9.6-1.5-9.6s-2.6-10.8-2-13.7
			c0.7-2.9-2.1-9.8-2.1-9.8l-0.9-8.3c-2.8-4.7-3.8-10.3-2.8-15.7V599c0,0-3.7-24.7-4.2-37.1c-0.3-8-0.2-18.9-0.1-25.7
			c0.1-3.8,0.1-6.3,0.1-6.3l56.8-5.9c0.1,2.8,0.4,5.7,1,8.4c0.6,3.1,1.5,7.1,2.9,12.2c4.1,14.4,1.6,25.2,1.6,25.2l-0.5,18.3
			c0,0,5,12.2,3.9,16.4c-0.6,2.5-1,5.1-1.1,7.6c0,0,11.2,26.7,10,34.4s3.7,19.9,3.7,19.9S783.6,675.1,782.3,677.4z"/>
		<path class="st10" d="M763.6,570.3c0,0-14.4,11.9-19.6,10.9C738.7,580.3,763.6,570.3,763.6,570.3z"/>
		<path class="st10" d="M728.5,614.5c0,0-10.9,2.5-11.3,6.9C716.8,625.8,728.5,614.5,728.5,614.5z"/>
		<path class="st15" d="M651.3,405.7l-7.7,4.1l-0.7-1.5c-0.7-1.5-1.8-3.9-2.2-4.7c-0.5-1.3-3.7-2.9-3.7-2.9
			c-8.1-7.7,1.5-14.3,1.5-14.3c5.1-10.3,10.8,3.5,10.8,3.5s0.8,7.2,0.2,7.7c-0.6,0.5-0.6,2.5-0.6,2.5c0.7,1.4,1.4,2.9,1.9,4.4
			C651.2,405.2,651.3,405.7,651.3,405.7z"/>
		<path class="st18" d="M652.1,408l-8.7,4.3l-0.2-1.9l-0.1-1.3c0,0,5-4.3,6.5-4.1c0.8,0.1,1.5,0.1,2.3,0l0.1,1.6L652.1,408z"/>
		<circle class="st15" cx="730" cy="408.1" r="15.6"/>
		<path class="st19" d="M776.4,528.8c0,0-48.2,8.3-53.4,6.7s-31.7,0.1-31.7,0.1c-12,8-7-3.8-7-3.8s-1.1-6.2,0.4-11.2
			c1-3.7,1.6-7.4,2-11.2c0,0-0.3-7.9,1.2-9.7s3.2-15,3.2-15s1.3-8.9,1.2-10.9s0.4-7.5,0.4-7.5l1.7-9.2c-9.8-1.3-39.8-19.7-39.8-19.7
			c-1.4-6.2-12.6-20.6-12.6-20.6c-0.2-1.2-0.5-2.4-0.9-3.5c-0.8-2.1,11-6.3,11-6.3s8.8,10.8,10.6,13.7c1.8,2.9,8.1,8.3,8.1,8.3
			c1-0.1,2,0,2.9,0.4h0.2c2.1,0.8,4.1,2,5.9,3.4c3-0.1,5.8,1,8,3c0,0,5.4-0.8,6.3,0.1c0.9,0.9,5.5,0,5.5,0s4.6-9.7,7.6-6.9
			c3,2.8,15.8,2.7,15.8,2.7c1.7-2.3,5.9-3.9,8.5-4.7c2.2-0.7,4.6-0.8,6.8-0.1c1,0.3,1.9,0.7,2.7,1.3l7.8,7.6l14,0.6
			c0,0,8.5,4.9,7.8,20c-1.6,3.3-4.4,9.1-7.1,13.4c-2.8,4.3-1.1,19.2-1.1,19.2s2.6,11.6,5.9,15.3
			C771.5,507.9,776.4,528.8,776.4,528.8z"/>
		<path class="st10" d="M706.1,442.4c0,0-1.4-4.4-2.8-4.7c-1.3-0.5-2.6-1.1-3.8-1.7l0.9-1.6c0,0,4.9,1.4,5.7,2.8
			C706.9,438.6,706.1,442.4,706.1,442.4z"/>
		<path class="st10" d="M679.8,432.8c-0.3,1.3-11.9,2.5-11.9,2.5l5.9-5.9l0,0l0.2,0.1l0,0C676,430.3,678,431.4,679.8,432.8z"/>
		<path class="st10" d="M706.2,478c-0.1-0.2,29.5,37.2,52.5,15.6C758.7,493.6,722.4,498.5,706.2,478z"/>
		<path class="st10" d="M698.9,458.9c1.8,4.2,4.1,8.1,6.9,11.8c3,4,6.6,7.5,10.8,10.4C716.5,481.1,699.2,461.4,698.9,458.9z"/>
		<path class="st10" d="M693.1,438.4c0,0,3,12.8,10.6,17.1L693.1,438.4z"/>
		<path class="st10" d="M688.5,439.7c-0.1-0.2-2.6,10.1,9.8,15.8C698.3,455.5,693.1,453.7,688.5,439.7z"/>
		<path class="st16" d="M725.8,422.3c0.1,0.8,0.6,1.6,1.2,2.1c0.5,0.2,1,0.3,1.5,0.3c4.8,0.3,9.7,0.5,14.2-1.3
			c0.8-0.3,1.6-0.8,2.2-1.4c0.6-1,1-2.2,1.2-3.4c0.6-2.3,1.9-4.4,2.9-6.6c1.6-3.8,2.1-7.9,1.5-11.9c-0.1-1.2-0.5-2.4-1.2-3.5
			c-1.3-1.8-3.6-2.5-5.2-4c-1.7-1.4-2.8-3.6-4.7-4.7c-1.9-0.8-3.9-1-5.9-0.5c-3.9,0.7-7.6,2.1-11,4.1c-1.1,0.7-2.4,1.5-3.7,1.3
			c-1.1-0.4-2.1-1.1-2.7-2.1c-0.9,2.1-1.3,4.5-1.2,6.8c0.1,0.3,0.1,0.7,0,1c-0.2,0.4-0.4,0.8-0.7,1.1c-1.2,1.4-1.9,3.5-0.8,4.9
			c0.5,0.6,1.3,0.9,1.8,1.5c0.9,1.1,0.6,2.7,0.6,4.1c0,0.5,0.1,1,0.3,1.4c0.5,0.5,1.3,0.7,1.9,0.5c0.7-0.2,1.4-0.3,2.1-0.2
			c0.7,0.2,1.4,0.7,1.8,1.4C724,415.8,724.9,418.9,725.8,422.3z"/>
	</g>
</g>
<g>
	<path class="st3" d="M825.6,626.8c0,0,5.9,7.8-2.7,19.5s-15.8,21.6-12.9,28.9c0,0,13.1-21.8,23.7-22S837.3,639.9,825.6,626.8z"/>
	<path class="st11" d="M836.7,636.7c0,2.7-0.3,4.9-0.7,4.9s-0.7-2.2-0.7-4.9s0.4-1.5,0.8-1.5S836.7,634,836.7,636.7z"/>
	<path class="st11" d="M840.4,640c-2.4,1.3-4.5,2.1-4.7,1.8s1.6-1.7,4-3s1.5-0.3,1.6,0S842.8,638.7,840.4,640z"/>
	<path class="st3" d="M794.3,626.8c0,0-5.9,7.8,2.7,19.5s15.8,21.6,12.9,28.9c0,0-13.1-21.8-23.7-22S782.6,639.9,794.3,626.8z"/>
	<path class="st20" d="M841.9,664.8l-0.3,2.4l-0.4,3.4L841,672l-0.4,3.4l-0.2,1.4l-0.4,3.4l-4.8,38.9c-0.4,3.5-6.1,6.2-12.9,6.2
		h-24.7c-6.8,0-12.5-2.7-12.9-6.2l-4.8-38.9l-0.4-3.4l-0.2-1.4L779,672l-0.2-1.4l-0.4-3.4l-0.3-2.4c-0.2-2,2.8-3.6,6.7-3.6h50.4
		C839.1,661.1,842.1,662.8,841.9,664.8z"/>
	<polygon class="st21" points="841.6,667.2 841.2,670.6 778.8,670.6 778.4,667.2 	"/>
	<polygon class="st21" points="841,672 840.6,675.4 779.4,675.4 779,672 	"/>
	<polygon class="st21" points="840.4,676.9 840,680.3 780,680.3 779.5,676.9 	"/>
</g>
</svg>
